<svg width="90" height="90" viewBox="0 0 90 90" fill="none" xmlns="http://www.w3.org/2000/svg">
<path d="M0 45C0 20.1472 20.1472 0 45 0V0C69.8528 0 90 20.1472 90 45V45C90 69.8528 69.8528 90 45 90V90C20.1472 90 0 69.8528 0 45V45Z" fill="white"/>
<path d="M28.1916 44.7719H17.7114V53.2624H28.1916V44.7719ZM26.3478 49.3626C26.3471 49.3626 26.3471 49.3626 26.3478 49.3626C26.2821 49.3626 19.8973 49.3481 19.3329 49.3626C19.3294 49.3626 19.3266 49.3626 19.3239 49.3626C19.1367 49.3626 18.9833 49.214 18.9784 49.0268C18.9736 48.8361 19.1242 48.6772 19.3149 48.6717C19.8876 48.6572 26.0845 48.6703 26.3478 48.6717C26.5384 48.6731 26.6932 48.8278 26.6932 49.0185C26.6932 49.2092 26.5377 49.3626 26.3478 49.3626Z" fill="black"/>
<path fill-rule="evenodd" clip-rule="evenodd" d="M66.5194 29.0349L32.7837 21.0183C32.4328 20.9361 32.0742 21.1378 31.9651 21.4832L29.5899 29.0349H17.7114V44.0817H28.5371C28.7277 44.0817 28.8825 44.2364 28.8825 44.4271V53.6085C28.8825 53.7985 28.7277 53.9539 28.5371 53.9539H17.7114V69H72.2887V29.0349H66.5194ZM31.0386 29.0349L33.0905 22.5119L60.5414 29.0349H31.0386ZM35.2386 42.0066H37.8293V47.4471H35.2386V42.0066ZM54.1015 42.0066H51.5108V47.4471H54.1015V42.0066Z" fill="black"/>
</svg>
