<svg width="132" height="51" viewBox="0 0 132 51" fill="none" xmlns="http://www.w3.org/2000/svg">
<path fill-rule="evenodd" clip-rule="evenodd" d="M15.7414 0.019115L50.9746 8.39162H57V50.1308H0V34.4168H11.3062C11.5053 34.4168 11.667 34.2545 11.667 34.0561V24.4671C11.667 24.2679 11.5053 24.1063 11.3062 24.1063H0V8.39162H12.4058L14.8864 0.504698C15.0004 0.143938 15.3748 -0.0667458 15.7414 0.019115ZM16.0617 1.57904L13.9188 8.39162H44.7313L16.0617 1.57904ZM21.0108 21.9392H18.3051V27.6212H21.0108V21.9392ZM35.2997 21.9392H38.0054V27.6212H35.2997V21.9392ZM0 24.8271H10.9454V33.6946H0V24.8271ZM8.86785 29.6213C8.96071 29.6215 9.0139 29.6216 9.01971 29.6216C9.21813 29.6216 9.38047 29.4614 9.38047 29.2623C9.38047 29.0631 9.21885 28.9015 9.01971 28.9001C8.74481 28.8986 2.27278 28.8849 1.67465 28.9001C1.47551 28.9058 1.31821 29.0718 1.32327 29.2709C1.32832 29.4664 1.48849 29.6216 1.68403 29.6216H1.69341C2.23294 29.6077 7.86479 29.6192 8.86785 29.6213Z" fill="white"/>
<path d="M63 27.7577V27.2281H63.6441C64.207 27.2281 64.6364 27.1423 64.9322 26.9705C65.2375 26.7892 65.4617 26.5459 65.6049 26.2406C65.6907 26.0402 65.7337 25.4391 65.7337 24.4372V11.6706C65.7337 10.6782 65.6812 10.058 65.5762 9.80996C65.4713 9.56188 65.2566 9.34719 64.9322 9.1659C64.6173 8.97507 64.1879 8.87966 63.6441 8.87966H63V8.3501H71.6876C74.0062 8.3501 75.8716 8.66497 77.2838 9.29471C79.0108 10.0676 80.318 11.2364 81.2054 12.8012C82.1023 14.3661 82.5507 16.136 82.5507 18.1111C82.5507 19.4756 82.3313 20.7351 81.8923 21.8896C81.4534 23.0346 80.8857 23.984 80.1892 24.7378C79.4926 25.482 78.6864 26.0831 77.7704 26.5411C76.8639 26.9896 75.7523 27.3379 74.4356 27.5859C73.8536 27.7004 72.9376 27.7577 71.6876 27.7577H63ZM70.3995 9.45215V24.5947C70.3995 25.3961 70.4377 25.8875 70.514 26.0688C70.5903 26.2501 70.7191 26.3885 70.9004 26.4839C71.1581 26.627 71.5302 26.6986 72.0168 26.6986C73.6102 26.6986 74.8268 26.1547 75.6665 25.067C76.8115 23.5976 77.3839 21.3171 77.3839 18.2256C77.3839 15.7353 76.9927 13.7459 76.2103 12.2574C75.5901 11.0933 74.7934 10.3014 73.8202 9.88152C73.1332 9.58573 71.9929 9.44261 70.3995 9.45215Z" fill="white"/>
<path d="M91.7822 9.46646V17.3669H92.1686C93.3995 17.3669 94.2916 16.9805 94.8451 16.2076C95.3985 15.4347 95.7515 14.2945 95.9042 12.7869H96.448V22.9487H95.9042C95.7897 21.8419 95.5464 20.9355 95.1742 20.2294C94.8117 19.5233 94.3871 19.051 93.9004 18.8124C93.4138 18.5644 92.7077 18.4403 91.7822 18.4403V23.9077C91.7822 24.9763 91.8251 25.6299 91.911 25.8685C92.0064 26.107 92.1782 26.3026 92.4263 26.4553C92.6743 26.6079 93.0751 26.6843 93.6285 26.6843H94.7878C96.6007 26.6843 98.051 26.2644 99.1388 25.4248C100.236 24.5851 101.023 23.3065 101.5 21.5891H102.03L101.157 27.7577H84.3827V27.2281H85.0268C85.5897 27.2281 86.0429 27.1279 86.3864 26.9276C86.6345 26.794 86.8253 26.565 86.9589 26.2406C87.0639 26.0116 87.1164 25.4105 87.1164 24.4372V11.6706C87.1164 10.7927 87.0925 10.2536 87.0448 10.0533C86.9494 9.71932 86.7729 9.46169 86.5152 9.2804C86.1527 9.01324 85.6565 8.87966 85.0268 8.87966H84.3827V8.3501H100.627V14.0894H100.083C99.8067 12.6867 99.4155 11.6801 98.9098 11.0695C98.4136 10.4588 97.7075 10.0103 96.7915 9.72409C96.2572 9.55234 95.2553 9.46646 93.7859 9.46646H91.7822Z" fill="white"/>
<path d="M111.404 9.46646V17.4385H111.963C112.821 17.4385 113.523 17.3096 114.067 17.052C114.61 16.7944 115.068 16.3603 115.441 15.7496C115.822 15.1389 116.07 14.3136 116.185 13.2736H116.686V23.0203H116.185C116.004 21.1788 115.507 19.967 114.696 19.3849C113.895 18.7934 112.984 18.4976 111.963 18.4976H111.404V24.4372C111.404 25.4295 111.457 26.0497 111.562 26.2978C111.676 26.5459 111.891 26.7654 112.206 26.9562C112.53 27.1375 112.965 27.2281 113.508 27.2281H114.152V27.7577H104.005V27.2281H104.649C105.212 27.2281 105.665 27.1279 106.009 26.9276C106.257 26.794 106.448 26.565 106.581 26.2406C106.686 26.0116 106.739 25.4105 106.739 24.4372V11.6706C106.739 10.6782 106.686 10.058 106.581 9.80996C106.476 9.56188 106.262 9.34719 105.937 9.1659C105.622 8.97507 105.193 8.87966 104.649 8.87966H104.005V8.3501H120.378V13.9176H119.792C119.658 12.6104 119.314 11.6419 118.761 11.0122C118.217 10.3825 117.425 9.93877 116.385 9.68115C115.813 9.53803 114.754 9.46646 113.208 9.46646H111.404Z" fill="white"/>
<path d="M132 27.2281V27.7577H121.853V27.2281H122.497C123.06 27.2281 123.513 27.1279 123.856 26.9276C124.104 26.794 124.295 26.565 124.429 26.2406C124.534 26.0116 124.586 25.4105 124.586 24.4372V11.6706C124.586 10.6782 124.534 10.058 124.429 9.80996C124.324 9.56188 124.109 9.34719 123.785 9.1659C123.47 8.97507 123.04 8.87966 122.497 8.87966H121.853V8.3501H132V8.87966H131.356C130.793 8.87966 130.34 8.97984 129.996 9.18022C129.748 9.3138 129.553 9.5428 129.409 9.86721C129.305 10.0962 129.252 10.6973 129.252 11.6706V24.4372C129.252 25.4295 129.305 26.0497 129.409 26.2978C129.524 26.5459 129.739 26.7654 130.054 26.9562C130.378 27.1375 130.812 27.2281 131.356 27.2281H132Z" fill="white"/>
<path d="M69.2316 42.2232V46.8461C69.2316 47.7383 69.2843 48.3019 69.3898 48.5371C69.5033 48.7642 69.698 48.9467 69.9737 49.0846C70.2495 49.2224 70.7645 49.2914 71.5187 49.2914V49.7415H63.0759V49.2914C63.8382 49.2914 64.3532 49.2224 64.6209 49.0846C64.8966 48.9386 65.0872 48.752 65.1927 48.525C65.3062 48.2979 65.363 47.7383 65.363 46.8461V36.1405C65.363 35.2483 65.3062 34.6887 65.1927 34.4616C65.0872 34.2264 64.8966 34.0399 64.6209 33.902C64.3451 33.7641 63.8301 33.6952 63.0759 33.6952V33.2451H70.7401C72.7353 33.2451 74.1951 33.3829 75.1197 33.6587C76.0443 33.9344 76.7986 34.4454 77.3825 35.1915C77.9665 35.9296 78.2584 36.7974 78.2584 37.795C78.2584 39.0115 77.8205 40.0172 76.9446 40.812C76.3849 41.3149 75.6023 41.692 74.5966 41.9434L78.5626 47.5274C79.0816 48.2492 79.4507 48.6993 79.6696 48.8778C80.0022 49.1292 80.3874 49.2671 80.8254 49.2914V49.7415H75.6307L70.3143 42.2232H69.2316ZM69.2316 34.1331V41.3595H69.925C71.0524 41.3595 71.8959 41.2581 72.4555 41.0553C73.0151 40.8445 73.453 40.4714 73.7694 39.9361C74.0938 39.3927 74.256 38.6871 74.256 37.8193C74.256 36.5622 73.9599 35.6336 73.3679 35.0334C72.7839 34.4332 71.8391 34.1331 70.5333 34.1331H69.2316Z" fill="white"/>
<path d="M81.2025 33.2451H89.7184V33.6952H89.2926C88.6518 33.6952 88.2098 33.7641 87.9665 33.902C87.7313 34.0318 87.561 34.2142 87.4556 34.4494C87.3582 34.6846 87.3096 35.2726 87.3096 36.2134V44.2914C87.3096 45.7674 87.4191 46.7447 87.6381 47.2232C87.8651 47.7018 88.2342 48.0992 88.7451 48.4155C89.2561 48.7318 89.9008 48.8899 90.6794 48.8899C91.5716 48.8899 92.3299 48.6912 92.9544 48.2938C93.587 47.8883 94.0574 47.3327 94.3656 46.6271C94.6819 45.9215 94.84 44.6928 94.84 42.941V36.2134C94.84 35.4754 94.763 34.9482 94.6089 34.6319C94.4548 34.3156 94.2602 34.0966 94.025 33.975C93.66 33.7884 93.145 33.6952 92.4799 33.6952V33.2451H98.1856V33.6952H97.8449C97.3826 33.6952 96.9974 33.7884 96.6892 33.975C96.381 34.1615 96.158 34.4413 96.0201 34.8144C95.9147 35.0739 95.8619 35.5403 95.8619 36.2134V42.4787C95.8619 44.4171 95.7322 45.8161 95.4727 46.6758C95.2212 47.5355 94.6008 48.3263 93.6113 49.0481C92.6219 49.7699 91.2715 50.1308 89.5602 50.1308C88.1328 50.1308 87.0298 49.9402 86.2512 49.559C85.1887 49.04 84.4385 48.3749 84.0006 47.5639C83.5626 46.7528 83.3436 45.662 83.3436 44.2914V36.2134C83.3436 35.2645 83.2909 34.6765 83.1855 34.4494C83.08 34.2142 82.8976 34.0277 82.638 33.8898C82.3785 33.752 81.9 33.6871 81.2025 33.6952V33.2451Z" fill="white"/>
<path d="M110.327 32.8679L110.461 38.3667H109.962C109.727 36.988 109.147 35.8809 108.222 35.0456C107.306 34.2021 106.312 33.7803 105.242 33.7803C104.414 33.7803 103.757 34.0034 103.271 34.4494C102.792 34.8874 102.553 35.3943 102.553 35.9701C102.553 36.3351 102.638 36.6595 102.808 36.9434C103.044 37.3246 103.421 37.7017 103.94 38.0748C104.321 38.3424 105.201 38.8169 106.58 39.4981C108.51 40.447 109.812 41.3432 110.485 42.1867C111.15 43.0302 111.482 43.9953 111.482 45.0821C111.482 46.4609 110.943 47.649 109.864 48.6466C108.794 49.6361 107.431 50.1308 105.777 50.1308C105.258 50.1308 104.767 50.0781 104.305 49.9727C103.843 49.8672 103.263 49.6685 102.565 49.3765C102.176 49.2143 101.855 49.1332 101.604 49.1332C101.393 49.1332 101.17 49.2143 100.935 49.3765C100.7 49.5387 100.509 49.7861 100.363 50.1186H99.9131V43.8899H100.363C100.72 45.6417 101.405 46.9799 102.419 47.9045C103.441 48.821 104.54 49.2792 105.716 49.2792C106.624 49.2792 107.346 49.0319 107.881 48.5371C108.425 48.0424 108.697 47.4666 108.697 46.8096C108.697 46.4203 108.591 46.0432 108.38 45.6782C108.178 45.3133 107.865 44.9686 107.444 44.6442C107.022 44.3116 106.276 43.8818 105.205 43.3546C103.705 42.6166 102.626 41.988 101.969 41.469C101.312 40.9499 100.805 40.37 100.448 39.7293C100.1 39.0886 99.9252 38.383 99.9252 37.6125C99.9252 36.2986 100.408 35.1794 101.373 34.2548C102.338 33.3302 103.555 32.8679 105.023 32.8679C105.558 32.8679 106.077 32.9328 106.58 33.0626C106.961 33.1599 107.423 33.3424 107.967 33.61C108.518 33.8696 108.903 33.9993 109.122 33.9993C109.333 33.9993 109.5 33.9344 109.621 33.8047C109.743 33.6749 109.856 33.3627 109.962 32.8679H110.327Z" fill="white"/>
<path d="M119.305 41.8096V46.9191C119.305 47.7626 119.35 48.2898 119.439 48.5006C119.536 48.7115 119.719 48.898 119.986 49.0602C120.262 49.2143 120.631 49.2914 121.093 49.2914H121.641V49.7415H113.015V49.2914H113.563C114.041 49.2914 114.427 49.2062 114.719 49.0359C114.929 48.9224 115.092 48.7277 115.205 48.452C115.294 48.2573 115.339 47.7464 115.339 46.9191V36.0675C115.339 35.224 115.294 34.6968 115.205 34.4859C115.116 34.2751 114.933 34.0926 114.658 33.9385C114.39 33.7763 114.025 33.6952 113.563 33.6952H113.015V33.2451H121.641V33.6952H121.093C120.615 33.6952 120.229 33.7803 119.938 33.9507C119.727 34.0642 119.56 34.2588 119.439 34.5346C119.35 34.7292 119.305 35.2402 119.305 36.0675V40.739H125.132V36.0675C125.132 35.224 125.088 34.6968 124.998 34.4859C124.909 34.2751 124.727 34.0926 124.451 33.9385C124.175 33.7763 123.806 33.6952 123.344 33.6952H122.809V33.2451H131.422V33.6952H130.886C130.4 33.6952 130.015 33.7803 129.731 33.9507C129.52 34.0642 129.354 34.2588 129.232 34.5346C129.143 34.7292 129.098 35.2402 129.098 36.0675V46.9191C129.098 47.7626 129.143 48.2898 129.232 48.5006C129.321 48.7115 129.504 48.898 129.779 49.0602C130.055 49.2143 130.424 49.2914 130.886 49.2914H131.422V49.7415H122.809V49.2914H123.344C123.83 49.2914 124.216 49.2062 124.5 49.0359C124.71 48.9224 124.877 48.7277 124.998 48.452C125.088 48.2573 125.132 47.7464 125.132 46.9191V41.8096H119.305Z" fill="white"/>
</svg>
